# xmcd
#
# Track frame offsets:
#	150
#	15901
#	30481
#	52312
#	68772
#	87040
#	98361
#	113066
#	125301
#	136419
#	160483
#	175419
#
# Disc length: 2555 seconds
#
# Revision: 0
# Processed by: cddbd v1.5.2PL0 Copyright (c) Steve Scherf et al.
# Submitted via: EasyCDDAExtractor 12.0.4.1
#
DISCID=9109f90c
DTITLE=John Miller - One Escuse Too Many
DYEAR=2010
DGENRE=Country
TTITLE0=One Excuse Too Many
TTITLE1=Leave My Darling Alone
TTITLE2=All Alone
TTITLE3=I Close My Eyes
TTITLE4=Another Sweetheart On Your Mind
TTITLE5=The Water Of Life
TTITLE6=Acting Like A Stranger
TTITLE7=A Real Ghost Town
TTITLE8=Just Let Me Know
TTITLE9=The Last Thing I Want To Do
TTITLE10=Two Into Three Won't Go
TTITLE11=Butt Out
EXTD=
EXTT0=
EXTT1=
EXTT2=
EXTT3=
EXTT4=
EXTT5=
EXTT6=
EXTT7=
EXTT8=
EXTT9=
EXTT10=
EXTT11=
PLAYORDER=
